<?xml version="1.0" standalone="no"?>
<!DOCTYPE svg PUBLIC "-//W3C//DTD SVG 20010904//EN"
 "http://www.w3.org/TR/2001/REC-SVG-20010904/DTD/svg10.dtd">
<svg version="1.0" xmlns="http://www.w3.org/2000/svg"
 width="2133.000000pt" height="2133.000000pt" viewBox="0 0 2133.000000 2133.000000"
 preserveAspectRatio="xMidYMid meet">
<metadata>
Created by potrace 1.15, written by Peter Selinger 2001-2017
</metadata>
<g transform="translate(0.000000,2133.000000) scale(0.100000,-0.100000)"
fill="#000000" stroke="none">
<path d="M12700 17729 c-1646 -95 -3039 -1256 -3435 -2864 -215 -872 -122
-1769 265 -2560 190 -389 407 -692 715 -1000 618 -619 1384 -985 2295 -1097
167 -21 692 -17 860 5 268 37 513 94 752 177 1279 441 2248 1573 2487 2905 44
245 55 381 55 660 1 275 -7 384 -45 615 -221 1355 -1196 2508 -2499 2958 -348
120 -656 180 -1035 202 -187 11 -217 11 -415 -1z m400 -765 c36 -9 108 -36
160 -62 81 -39 108 -59 185 -137 103 -103 144 -168 188 -292 26 -75 31 -106
35 -214 4 -104 1 -140 -17 -210 -54 -216 -188 -388 -381 -488 -186 -97 -379
-112 -585 -47 -115 37 -198 89 -295 186 -132 132 -196 264 -219 449 -42 332
166 666 490 788 144 54 287 63 439 27z m-2044 -1125 c159 -22 299 -88 416
-198 166 -155 246 -353 236 -585 -9 -200 -73 -340 -223 -492 -132 -133 -266
-201 -442 -223 -149 -19 -330 19 -463 96 -80 47 -223 188 -269 266 -246 419
-48 959 404 1103 133 42 218 50 341 33z m4014 -16 c36 -8 107 -35 159 -60 81
-38 108 -58 186 -137 103 -102 158 -195 195 -326 125 -451 -176 -902 -641
-961 -312 -39 -634 150 -773 453 -165 359 -10 789 348 969 171 86 341 106 526
62z m-2045 -1438 c407 -106 455 -660 71 -825 -194 -83 -422 -19 -535 151 -81
121 -95 300 -34 432 91 193 298 294 498 242z m-1832 -842 c48 -17 113 -46 144
-64 74 -44 195 -159 245 -232 160 -235 171 -559 27 -805 -55 -92 -200 -230
-294 -279 -241 -125 -520 -118 -752 18 -93 54 -221 189 -270 284 -103 199
-118 411 -43 618 87 238 282 415 527 477 121 31 298 23 416 -17z m3930 0 c123
-43 189 -85 287 -183 95 -95 141 -165 181 -279 149 -423 -83 -873 -507 -981
-160 -41 -302 -35 -455 19 -111 39 -182 85 -275 176 -146 144 -214 296 -222
496 -4 95 -1 130 17 199 74 294 292 508 586 576 39 9 102 13 180 10 102 -3
133 -7 208 -33z m-2018 -1117 c111 -29 240 -101 322 -179 166 -158 243 -335
243 -563 0 -194 -67 -368 -193 -502 -146 -153 -313 -230 -522 -239 -227 -10
-408 61 -570 222 -91 91 -136 162 -176 275 -68 193 -57 395 33 575 111 220
298 366 538 420 79 18 239 13 325 -9z"/>
<path d="M5400 16244 c-690 -83 -1313 -385 -1800 -874 -243 -243 -423 -494
-571 -795 -230 -469 -328 -915 -316 -1430 12 -467 115 -881 320 -1286 438
-862 1263 -1469 2212 -1628 391 -66 821 -51 1205 40 552 131 1053 411 1455
814 475 476 767 1068 862 1746 21 155 24 582 5 739 -19 154 -66 379 -107 515
-116 383 -305 744 -545 1045 -106 133 -335 362 -465 465 -450 360 -989 584
-1560 650 -162 19 -536 18 -695 -1z m485 -595 c78 -17 204 -82 266 -138 210
-188 267 -482 142 -734 -46 -91 -160 -208 -250 -255 -179 -94 -407 -94 -586 0
-91 47 -206 166 -250 259 -38 80 -67 199 -67 276 1 149 73 317 184 428 154
152 348 209 561 164z m-1535 -929 c188 -63 335 -209 397 -395 52 -159 29 -362
-58 -500 -75 -121 -199 -218 -333 -262 -66 -22 -100 -26 -186 -27 -120 0 -187
16 -290 70 -237 124 -365 402 -306 667 53 237 249 423 496 471 56 11 216 -3
280 -24z m3180 -4 c246 -85 410 -314 410 -574 0 -113 -16 -179 -65 -280 -68
-137 -195 -245 -352 -299 -66 -22 -94 -26 -188 -26 -91 0 -124 4 -190 26 -194
64 -347 226 -400 423 -22 79 -22 223 0 304 40 154 166 316 302 388 146 77 327
91 483 38z m-1628 -1169 c68 -33 131 -100 166 -175 23 -49 27 -70 27 -147 0
-82 -3 -97 -33 -157 -38 -77 -92 -130 -171 -167 -47 -22 -70 -26 -141 -26 -71
0 -94 4 -141 26 -202 95 -270 341 -147 525 40 58 112 115 176 137 73 25 195
18 264 -16z m-1607 -642 c205 -43 393 -214 455 -413 46 -149 33 -301 -39 -447
-147 -297 -502 -424 -798 -286 -268 126 -406 419 -333 705 80 315 394 508 715
441z m3230 -20 c433 -145 558 -682 235 -1006 -119 -119 -299 -187 -461 -175
-203 14 -392 130 -490 300 -112 194 -108 451 9 632 84 130 235 235 384 269 93
21 225 13 323 -20z m-1621 -901 c110 -28 184 -71 272 -159 93 -93 143 -180
170 -301 65 -295 -112 -605 -404 -706 -97 -33 -287 -33 -384 0 -255 88 -433
352 -414 613 7 98 46 221 94 295 79 121 224 226 360 258 79 20 230 20 306 0z"/>
<path d="M9012 11320 c-124 -33 -160 -59 -301 -220 -256 -291 -514 -515 -831
-722 -519 -339 -1052 -535 -1675 -615 -173 -22 -669 -25 -840 -5 -387 45 -776
146 -1091 283 -66 28 -258 122 -429 208 -170 85 -336 168 -368 183 l-57 27 3
-3027 c3 -2794 4 -3032 20 -3094 76 -303 217 -487 462 -604 50 -24 129 -53
175 -65 85 -22 90 -23 1305 -29 1594 -10 6760 -9 8240 0 l1160 7 80 22 c322
90 523 294 614 621 l26 95 3 2985 c2 1642 0 3018 -3 3058 -4 39 -11 72 -17 72
-5 0 -73 -36 -151 -81 -641 -366 -1269 -575 -1972 -656 -186 -21 -710 -24
-885 -5 -809 89 -1481 334 -2146 783 -256 173 -476 354 -734 605 -69 67 -144
131 -167 143 -105 53 -287 66 -421 31z m1147 -2980 c902 -448 1637 -818 1633
-822 -7 -7 -3282 -1728 -3289 -1728 -1 0 -3 759 -3 1686 0 1114 3 1685 10
1682 5 -1 748 -370 1649 -818z"/>
<path d="M18393 10476 c-267 -131 -1749 -891 -2203 -1129 -74 -39 -147 -84
-162 -99 -15 -16 -35 -57 -46 -91 -20 -60 -20 -102 -26 -1608 -6 -1666 -8
-1589 44 -1706 22 -50 97 -133 159 -176 24 -16 204 -111 400 -209 413 -209
611 -312 1376 -718 308 -163 579 -307 603 -319 l42 -21 0 3070 0 3070 -29 0
c-16 0 -87 -29 -158 -64z"/>
</g>
</svg>
